# xmcd
#
# Track frame offsets:
#	150
#	25498
#	46840
#	73955
#	97532
#	122535
#	144455
#	166010
#	185294
#	201367
#	228519
#	255860
#	281846
#	300445
#
# Disc length: 4209
#
# Revision: 1
# Processed by: cddbd v1.5.1PL0 Copyright (c) Steve Scherf et al.
# Submitted via: CDex 1.50
# Normalized: r0:TDELIM( - )
#
DISCID=b5106f0e
DTITLE=Various Artist - NAV April 2001 Sampler
DYEAR=2001
DGENRE=New Age
TTITLE0=Luminaria - The Crossing
TTITLE1=David Cullen - Good to See You
TTITLE2=Adiemus - King of the Sacred Grove
TTITLE3=Jesse Cutler - Friendly Eyes
TTITLE4=Positively Dark - In Your Arms
TTITLE5=Sacred Spirit II - Yane-Heja-Hee
TTITLE6=Khadja Nin - Mama
TTITLE7=Patrick Leonard - The Slough
TTITLE8=Jan Hammer - Red Dragon
TTITLE9=John St John - Nali-Googoola-Zooma
TTITLE10=Naoyuki Onda - Distant Vista
TTITLE11=Ray - Ethereal Journey
TTITLE12=Tony Stoufer - Artifacts
TTITLE13=Nick Farr - Summer Storm
EXTD=YEAR: 2001
EXTT0=
EXTT1=
EXTT2=
EXTT3=
EXTT4=
EXTT5=
EXTT6=
EXTT7=
EXTT8=
EXTT9=
EXTT10=
EXTT11=
EXTT12=
EXTT13=
PLAYORDER=
